<svg width="120" height="25" viewBox="0 0 120 25" fill="none" xmlns="http://www.w3.org/2000/svg">
<path d="M20.5186 7.97375L18.8164 8.01063L12.5278 11.7918L5.80576 7.97375L4.18014 7.99474C4.0222 8.06722 3.88935 8.18497 3.79843 8.33307C3.70751 8.48116 3.66263 8.65292 3.66948 8.82656L3.67742 16.5433C3.69125 16.7109 3.7556 16.8704 3.86197 17.0007C3.96834 17.1309 4.11173 17.2259 4.27319 17.273L5.43014 17.2571C5.57768 17.1983 5.70635 17.1003 5.80225 16.9737C5.89816 16.8471 5.95764 16.6967 5.97428 16.5387V10.7291L12.4308 14.4569C12.5161 14.4853 12.6082 14.4853 12.6935 14.4569L18.7993 10.754L18.8124 16.5359C18.8261 16.7073 18.8926 16.8703 19.0027 17.0024C19.1129 17.1345 19.2613 17.2292 19.4275 17.2735L20.5322 17.261C20.6833 17.2095 20.8165 17.1159 20.9163 16.9913C21.0161 16.8666 21.0783 16.7162 21.0956 16.5575V8.67846C21.0781 8.5177 21.0142 8.3655 20.9118 8.24039C20.8093 8.11527 20.6727 8.02263 20.5186 7.97375Z" fill="#AB000B"/>
<path d="M54.0829 12.5816L58.9785 8.42824C59.2054 8.23419 59.1118 7.97432 58.8111 7.97432L56.4927 8.03106L52.1015 11.4769H43.6795L43.6619 8.68811C43.6483 8.52779 43.588 8.37496 43.4886 8.24844C43.3892 8.12192 43.255 8.02723 43.1025 7.97602L41.8485 7.99985C41.7154 8.06464 41.6013 8.16284 41.5175 8.28486C41.4337 8.40688 41.3829 8.54856 41.3702 8.69606L41.3991 16.5455C41.4135 16.7131 41.4784 16.8724 41.5851 17.0024C41.6919 17.1323 41.8355 17.2269 41.9971 17.2735L43.1564 17.2576C43.2992 17.2029 43.424 17.1096 43.5171 16.9883C43.6101 16.8669 43.6677 16.7221 43.6835 16.5699V13.7743H52.1123L56.6776 17.2741H58.8491C59.1481 17.2741 59.2463 17.0159 59.0193 16.8202L54.0829 12.5816Z" fill="#AB000B"/>
<path d="M39.3916 7.97375L37.7161 8.00098L24.7361 14.5057L24.7219 8.73975C24.7081 8.55092 24.6304 8.37242 24.5018 8.23354C24.3731 8.09465 24.201 8.00364 24.0138 7.97545H23.2535C23.0444 7.97818 22.844 8.05927 22.6918 8.20269C22.5397 8.34612 22.4469 8.54142 22.4319 8.74996L22.4529 16.5189C22.4669 16.7004 22.5398 16.8725 22.6605 17.0088C22.7813 17.1451 22.9433 17.2383 23.1218 17.2741L24.6073 17.2463L37.6951 10.6247V16.5563C37.7143 16.7251 37.7842 16.8841 37.8957 17.0124C38.0071 17.1406 38.1548 17.232 38.3192 17.2747L39.4013 17.2639C39.5634 17.2109 39.7065 17.1118 39.813 16.9786C39.9196 16.8455 39.9849 16.6841 40.001 16.5143L39.9812 8.7023C39.9677 8.53561 39.9042 8.37687 39.799 8.24687C39.6938 8.11687 39.5518 8.02167 39.3916 7.97375Z" fill="#AB000B"/>
<path d="M60.4917 16.5257C60.5058 16.7023 60.5757 16.8699 60.6913 17.0042C60.8068 17.1385 60.9621 17.2326 61.1346 17.273L62.1622 17.265C62.3324 17.2178 62.4843 17.12 62.5977 16.9845C62.7111 16.849 62.7806 16.6823 62.7971 16.5064V14.4847L75.6414 14.4915C77.2302 14.4915 78.0597 13.6404 78.0597 12.0381V10.2905C78.0597 9.00416 77.4764 8.19106 76.2537 7.97488L60.9689 7.99815C60.8346 8.06242 60.7193 8.16058 60.6344 8.28296C60.5496 8.40533 60.498 8.54771 60.4849 8.69606L60.4917 16.5257ZM62.7971 10.215H75.3158C75.6318 10.215 75.7441 10.3285 75.7402 10.6451V11.7311C75.7328 12.0806 75.608 12.1794 75.3373 12.1794H62.7914L62.7971 10.215Z" fill="#AB000B"/>
<path d="M119.155 3.96106L60.477 0L0.847201 3.96106C0.621249 3.98819 0.412082 4.09407 0.256434 4.26009C0.100786 4.42612 0.00861028 4.64167 -0.00390625 4.8689V20.0856C0.0080667 20.3136 0.100503 20.5299 0.256967 20.6961C0.41343 20.8623 0.623778 20.9677 0.850605 20.9934L60.7164 24.6084L119.145 20.9934C119.371 20.9669 119.581 20.8613 119.737 20.6951C119.892 20.529 119.984 20.313 119.996 20.0856V4.86777C119.984 4.64228 119.893 4.42822 119.739 4.26263C119.586 4.09705 119.379 3.99037 119.155 3.96106ZM118.184 19.2305L60.6625 22.7887L1.81576 19.2288V5.71888L60.5377 1.81967L118.183 5.71774V19.2305H118.184Z" fill="#AB000B"/>
<path d="M81.2429 17.2735H95.1188C96.3744 17.1203 97.006 16.3089 97.006 14.967V10.371C97.006 9.03366 96.417 8.18993 95.1704 7.97772L81.1782 7.98112C80.0071 8.18766 79.4351 9.0155 79.4351 10.32V14.9245C79.4351 16.2352 80.0156 17.0636 81.2429 17.2735ZM81.7411 10.6547C81.7411 10.3393 81.8545 10.2178 82.195 10.2178H94.2506C94.5701 10.2178 94.7046 10.3393 94.7046 10.7047V14.584C94.7046 14.912 94.586 15.0289 94.2665 15.0289H82.1927C81.8659 15.0289 81.7388 14.9074 81.7388 14.563V10.6547H81.7411Z" fill="#AB000B"/>
<path d="M98.9987 17.2735L100.109 17.2605C100.253 17.2112 100.381 17.1232 100.479 17.006C100.577 16.8888 100.64 16.7469 100.662 16.596V13.7692H113.652L113.666 16.5155C113.679 16.6993 113.754 16.8734 113.877 17.0106C114 17.1477 114.165 17.2402 114.346 17.2735L115.261 17.2707C115.433 17.2414 115.592 17.1584 115.714 17.0334C115.836 16.9085 115.916 16.748 115.941 16.575L115.924 8.69606C115.911 8.53183 115.848 8.37544 115.745 8.24687C115.642 8.1183 115.503 8.02341 115.346 7.97432L114.141 7.99417C114.014 8.04924 113.903 8.13517 113.817 8.24417C113.732 8.35317 113.675 8.48178 113.652 8.61832V11.4763H100.662V8.69606C100.648 8.53089 100.585 8.37377 100.48 8.245C100.376 8.11623 100.235 8.02174 100.077 7.97375L98.8801 7.99304C98.7505 8.04815 98.637 8.13526 98.5503 8.24622C98.4635 8.35717 98.4064 8.48833 98.3842 8.6274V16.5359C98.3979 16.7073 98.4643 16.8702 98.5744 17.0022C98.6844 17.1343 98.8326 17.2291 98.9987 17.2735Z" fill="#AB000B"/>
</svg>
