<svg width="53" height="71" viewBox="0 0 53 71" fill="none" xmlns="http://www.w3.org/2000/svg">
<path d="M0.5 1.25H42.2929L52 10.9571V70.25H0.5V1.25Z" fill="white" stroke="#E4E4E5"/>
<rect width="31" height="16" transform="translate(0 46.75)" fill="#AB000B"/>
<path d="M5.02 58.75V50.35H8.2C9.024 50.35 9.68 50.598 10.168 51.094C10.656 51.59 10.9 52.222 10.9 52.99C10.9 53.758 10.656 54.39 10.168 54.886C9.68 55.382 9.024 55.63 8.2 55.63H6.04V58.75H5.02ZM6.04 54.73H8.14C8.676 54.73 9.1 54.57 9.412 54.25C9.724 53.93 9.88 53.51 9.88 52.99C9.88 52.47 9.724 52.05 9.412 51.73C9.1 51.41 8.676 51.25 8.14 51.25H6.04V54.73ZM12.52 58.75V50.35H15.34C16.484 50.35 17.4 50.714 18.088 51.442C18.776 52.17 19.12 53.206 19.12 54.55C19.12 55.894 18.776 56.93 18.088 57.658C17.4 58.386 16.484 58.75 15.34 58.75H12.52ZM13.54 57.85H15.34C16.172 57.85 16.84 57.566 17.344 56.998C17.848 56.422 18.1 55.606 18.1 54.55C18.1 53.494 17.848 52.682 17.344 52.114C16.84 51.538 16.172 51.25 15.34 51.25H13.54V57.85ZM20.7348 58.75V50.35H26.0148V51.25H21.7548V54.19H25.7148V55.09H21.7548V58.75H20.7348Z" fill="white"/>
</svg>
