<svg width="24" height="22" viewBox="0 0 24 22" fill="none" xmlns="http://www.w3.org/2000/svg">
<path d="M24 1.36132L20.1991 20.5057C20.1991 20.5057 19.669 21.836 18.2087 21.1959L12.8059 17.0553L9.34513 20.2161C9.34513 20.2161 9.07507 20.4261 8.775 20.2961L8.77829 20.2669L9.47499 14.315C9.47499 14.315 19.1872 5.58299 19.5873 5.21291C19.9874 4.84282 19.8574 4.76281 19.8574 4.76281C19.8774 4.3127 19.1372 4.76281 19.1372 4.76281L6.27025 12.9409L6.25594 12.934L0.90472 11.1336C0.90472 11.1336 0.0845327 10.8435 0.00451441 10.2033C-0.0755039 9.5632 0.934727 9.22312 0.934727 9.22312L22.2496 0.861206C22.2496 0.861206 24 0.0910297 24 1.36132Z" fill="#1E1E1E"/>
</svg>
