<svg width="24" height="18" viewBox="0 0 24 18" fill="none" xmlns="http://www.w3.org/2000/svg">
<path fill-rule="evenodd" clip-rule="evenodd" d="M21.3912 1.11222C22.4185 1.38884 23.2296 2.19912 23.5062 3.22726C24.0203 5.10567 23.9999 9.01916 23.9999 9.01916C23.9999 9.01916 23.9999 12.9139 23.5054 14.7923C23.2288 15.8196 22.4185 16.6307 21.3903 16.9073C19.5128 17.4018 11.9999 17.4018 11.9999 17.4018C11.9999 17.4018 4.50753 17.4018 2.60953 16.8877C1.5822 16.6111 0.77111 15.8008 0.49449 14.7727C0 12.9147 0 9.00039 0 9.00039C0 9.00039 0 5.10567 0.49449 3.22726C0.77111 2.19912 1.60097 1.36925 2.60953 1.09263C4.48794 0.598145 11.9999 0.598145 11.9999 0.598145C11.9999 0.598145 19.5128 0.598145 21.3912 1.11222ZM9.6083 12.5982V5.40195L15.8555 9.00046L9.6083 12.5982Z" fill="white"/>
</svg>
