<svg width="24" height="18" viewBox="0 0 24 18" fill="none" xmlns="http://www.w3.org/2000/svg">
<path fill-rule="evenodd" clip-rule="evenodd" d="M21.3912 1.11271C22.4185 1.38933 23.2296 2.1996 23.5062 3.22775C24.0203 5.10616 23.9999 9.01964 23.9999 9.01964C23.9999 9.01964 23.9999 12.9144 23.5054 14.7928C23.2288 15.8201 22.4185 16.6312 21.3903 16.9078C19.5128 17.4023 11.9999 17.4023 11.9999 17.4023C11.9999 17.4023 4.50753 17.4023 2.60953 16.8882C1.5822 16.6116 0.77111 15.8013 0.49449 14.7732C0 12.9152 0 9.00088 0 9.00088C0 9.00088 0 5.10616 0.49449 3.22775C0.77111 2.1996 1.60097 1.36974 2.60953 1.09312C4.48794 0.598633 11.9999 0.598633 11.9999 0.598633C11.9999 0.598633 19.5128 0.598633 21.3912 1.11271ZM9.6083 12.5986V5.40244L15.8555 9.00095L9.6083 12.5986Z" fill="#1E1E1E"/>
</svg>
