<svg width="54" height="64" viewBox="0 0 54 64" fill="none" xmlns="http://www.w3.org/2000/svg">
<path d="M27 0C9.12 0 0.58 10.1 0.22 10.52C0.08 10.7 0 10.92 0 11.16V31.26C0 48.26 15.66 58.36 22.38 61.92C22.86 62.18 23.48 62 23.74 61.5C24 61.02 23.82 60.4 23.32 60.14C15.36 55.96 2 46.62 2 31.26V11.54C3.4 10.02 11.26 2.34 26 2.02V63C26 63.56 26.44 64 27 64C27.3 64 27.56 63.86 27.76 63.66C31.02 62.26 54 51.64 54 31V11C54 10.76 53.92 10.54 53.76 10.36C53.48 10 46.34 1.62 31.48 0.12C30.94 0.08 30.44 0.46 30.38 1.02C30.32 1.56 30.72 2.06 31.28 2.12C43.86 3.38 50.7 10 52 11.38V31C52 48.9 33.28 58.9 28 61.36V1C28 0.44 27.56 0 27 0Z" fill="#AB000B"/>
</svg>
