<svg width="64" height="64" viewBox="0 0 64 64" fill="none" xmlns="http://www.w3.org/2000/svg">
<path d="M63.1413 40.4272C62.6698 40.4272 62.2994 40.7976 62.2994 41.2691V61.4743C62.2994 61.9458 61.929 62.3162 61.4575 62.3162H2.52565C2.0542 62.3162 1.68377 61.9458 1.68377 61.4743V41.2691C1.68377 40.7976 1.31334 40.4272 0.841884 40.4272C0.370429 40.4272 0 40.7976 0 41.2691V61.4743C0 62.8718 1.12812 63.9999 2.52565 63.9999H61.4575C62.855 63.9999 63.9832 62.8718 63.9832 61.4743V41.2691C63.9832 40.7976 63.6127 40.4272 63.1413 40.4272Z" fill="#AB000B"/>
<path d="M42.9361 18.5382C43.4075 18.5382 43.778 18.1678 43.778 17.6963V12.645C43.778 11.2475 42.6498 10.1194 41.2523 10.1194H22.7309C21.3333 10.1194 20.2052 11.2475 20.2052 12.645V17.6963C20.2052 18.1678 20.5756 18.5382 21.0471 18.5382C21.5185 18.5382 21.889 18.1678 21.889 17.6963V12.645C21.889 12.1736 22.2594 11.8032 22.7309 11.8032H41.2523C41.7238 11.8032 42.0942 12.1736 42.0942 12.645V17.6963C42.0942 18.1678 42.4646 18.5382 42.9361 18.5382Z" fill="#AB000B"/>
<path d="M61.4575 21.9058H2.52565C1.12812 21.9058 0 23.0339 0 24.4314V32.7829C0 37.4638 15.9284 43.7274 32.2105 43.7274C48.2736 43.7274 64 37.4638 64 32.7829V24.4314C63.9832 23.0339 62.855 21.9058 61.4575 21.9058ZM62.2994 32.7829C62.2994 35.7463 48.0547 42.0436 32.1936 42.0436C16.1305 42.0436 1.68377 35.7463 1.68377 32.7829V24.4314C1.68377 23.96 2.0542 23.5895 2.52565 23.5895H61.4575C61.929 23.5895 62.2994 23.96 62.2994 24.4314V32.7829Z" fill="#AB000B"/>
<path d="M32.2105 48.846C33.7932 48.846 35.4433 48.7787 37.1102 48.644C37.5817 48.6103 37.9184 48.2062 37.8848 47.7348C37.8511 47.2633 37.4638 46.9097 36.9755 46.9602C33.5912 47.2296 30.392 47.2128 27.0076 46.9265C26.5699 46.876 26.1321 47.2296 26.0984 47.7011C26.0647 48.1725 26.4015 48.5766 26.8729 48.6103C28.6746 48.7619 30.4762 48.846 32.2105 48.846Z" fill="#AB000B"/>
</svg>
