<svg width="64" height="64" viewBox="0 0 64 64" fill="none" xmlns="http://www.w3.org/2000/svg">
<path d="M3 64H31C31.56 64 32 63.56 32 63C32 62.44 31.56 62 31 62H3C2.44 62 2 61.56 2 61V3C2 2.44 2.44 2 3 2H45C45.56 2 46 2.44 46 3V13C46 13.56 46.44 14 47 14C47.56 14 48 13.56 48 13V3C48 1.34 46.66 0 45 0H3C1.34 0 0 1.34 0 3V61C0 62.66 1.34 64 3 64Z" fill="#AB000B"/>
<path d="M36 21V61C36 62.66 37.34 64 39 64H61C62.66 64 64 62.66 64 61V21C64 19.34 62.66 18 61 18H39C37.34 18 36 19.34 36 21ZM62 21V61C62 61.56 61.56 62 61 62H39C38.44 62 38 61.56 38 61V21C38 20.44 38.44 20 39 20H61C61.56 20 62 20.44 62 21Z" fill="#AB000B"/>
<path d="M24 58C25.1046 58 26 57.1046 26 56C26 54.8954 25.1046 54 24 54C22.8954 54 22 54.8954 22 56C22 57.1046 22.8954 58 24 58Z" fill="#AB000B"/>
<path d="M50 58C51.1046 58 52 57.1046 52 56C52 54.8954 51.1046 54 50 54C48.8954 54 48 54.8954 48 56C48 57.1046 48.8954 58 50 58Z" fill="#AB000B"/>
</svg>
